<svg width="46" height="28" viewBox="0 0 46 28" fill="none" xmlns="http://www.w3.org/2000/svg">
<path d="M13.976 4.72801L6.968 26.232V26.2C6.84 26.52 6.65867 26.7867 6.424 27C6.21067 27.192 5.944 27.288 5.624 27.288C5.45334 27.288 5.28267 27.2667 5.112 27.224C4.96267 27.2027 4.80267 27.1707 4.632 27.128H4.664C3.448 26.744 0.679998 28.4813 0.999998 27.5L10.616 2.90401C10.7227 2.56268 10.904 2.27468 11.16 2.04001C11.4373 1.80535 11.7573 1.66668 12.12 1.62401C12.4827 1.56001 12.8347 1.51735 13.176 1.49601C13.5173 1.45335 13.784 0 13.976 0C14.168 0 14.4347 1.45335 14.776 1.49601C15.1173 1.51735 15.4693 1.54935 15.832 1.59201C16.1307 1.63468 16.4187 1.79468 16.696 2.07201C16.9947 2.34935 17.2187 2.62668 17.368 2.90401C18.5627 6.57335 19.768 10.2747 20.984 14.008C22.2213 17.72 24 24 24 24L27 27.5C27 27.5 22.36 27.6322 22.36 27.288C22.36 27.7467 22.232 27.3307 22.36 27.288C22.0613 27.288 21.784 27.192 21.528 27C21.2933 26.7867 21.1227 26.52 21.016 26.2V26.232L13.976 4.72801ZM16.376 19.32C16.376 20.0027 16.1307 20.5893 15.64 21.08C15.1707 21.5493 14.5947 21.784 13.912 21.784C13.2293 21.784 12.6533 21.5493 12.184 21.08C11.7147 20.5893 11.48 20.0027 11.48 19.32C11.48 18.6373 11.7147 18.0613 12.184 17.592C12.6533 17.1013 13.2933 14.008 13.976 14.008C14.6587 14.008 15.1707 17.1013 15.64 17.592C16.1307 18.0613 16.376 18.6373 16.376 19.32Z" fill="black"/>
<path d="M35.3756 3.59809C35.7059 2.83836 35.3578 1.95471 34.5981 1.62439C33.8384 1.29408 32.9547 1.64219 32.6244 2.40191L35.3756 3.59809ZM25.3756 26.5981L35.3756 3.59809L32.6244 2.40191L22.6244 25.4019L25.3756 26.5981Z" fill="black"/>
<path d="M26 3L44 3" stroke="black" stroke-width="3" stroke-linecap="round"/>
<path d="M35 3V25" stroke="black" stroke-width="3" stroke-linecap="round"/>
<path d="M26 26H44.5" stroke="black" stroke-width="3" stroke-linecap="round"/>
</svg>
